<svg xmlns="http://www.w3.org/2000/svg" xmlns:xlink="http://www.w3.org/1999/xlink" width="152" height="151" viewBox="0 0 152 151"><defs><clipPath id="a"><rect width="152" height="151" transform="translate(282 202.572)" fill="#fff" stroke="#707070" stroke-width="1"/></clipPath></defs><g transform="translate(-282 -202.572)" clip-path="url(#a)"><g transform="translate(282 178.397)"><g transform="translate(0 38.318)"><g transform="translate(0 0)"><path d="M22.3,83.1v29.918H159.094V83.1Zm24.308,18.961H38.571v-8h8v8Zm16.009,0h-8v-8h8Zm16.041,0h-8v-8h8Zm64.132,0H102.7v-8H142.79Z" transform="translate(-22.3 -83.1)" fill="#3a0d51"/><g transform="translate(0 53.963)"><path d="M22.3,247.6v29.393H159.094V247.6Zm24.308,18.7H38.571v-8h8v8Zm16.009,0h-8v-8h8Zm16.041,0h-8v-8h8Zm64.132,0H102.7v-8H142.79Z" transform="translate(-22.3 -247.6)" fill="#3a0d51"/></g><g transform="translate(0 107.401)"><path d="M22.3,410.5v29.393H159.094V410.5Zm24.308,18.7H38.571v-8h8v8Zm16.009,0h-8v-8h8Zm16.041,0h-8v-8h8Zm64.132,0H102.7v-8H142.79Z" transform="translate(-22.3 -410.5)" fill="#3a0d51"/></g><g transform="translate(8.267 37.922)"><path d="M47.5,198.7H167.728v8H47.5Z" transform="translate(-47.5 -198.7)" fill="#3a0d51"/></g><g transform="translate(8.267 91.36)"><path d="M47.5,361.6H167.728v8H47.5Z" transform="translate(-47.5 -361.6)" fill="#3a0d51"/></g></g></g><text transform="translate(111.108 65)" fill="#3a0d51" stroke="#efefef" stroke-miterlimit="10" stroke-width="4" font-size="72" font-family="ArialMT, Arial"><tspan x="0" y="0">+</tspan></text></g></g></svg>